<?xml version="1.0" standalone="no"?>
<svg xmlns:xlink="http://www.w3.org/1999/xlink" id="wave" style="transform:rotate(0deg); transition: 0.3s" viewBox="0 0 1440 490" version="1.1" xmlns="http://www.w3.org/2000/svg"><defs><linearGradient id="sw-gradient-0" x1="0" x2="0" y1="1" y2="0"><stop stop-color="rgba(24, 18, 43, 1)" offset="0%"/><stop stop-color="rgba(24, 18, 43, 1)" offset="100%"/></linearGradient></defs><path style="transform:translate(0, 0px); opacity:1" fill="url(#sw-gradient-0)" d="M0,147L48,130.7C96,114,192,82,288,81.7C384,82,480,114,576,147C672,180,768,212,864,220.5C960,229,1056,212,1152,179.7C1248,147,1344,98,1440,98C1536,98,1632,147,1728,147C1824,147,1920,98,2016,73.5C2112,49,2208,49,2304,106.2C2400,163,2496,278,2592,269.5C2688,261,2784,131,2880,65.3C2976,0,3072,0,3168,0C3264,0,3360,0,3456,73.5C3552,147,3648,294,3744,310.3C3840,327,3936,212,4032,212.3C4128,212,4224,327,4320,310.3C4416,294,4512,147,4608,73.5C4704,0,4800,0,4896,8.2C4992,16,5088,33,5184,49C5280,65,5376,82,5472,98C5568,114,5664,131,5760,147C5856,163,5952,180,6048,163.3C6144,147,6240,98,6336,122.5C6432,147,6528,245,6624,310.3C6720,376,6816,408,6864,424.7L6912,441L6912,490L6864,490C6816,490,6720,490,6624,490C6528,490,6432,490,6336,490C6240,490,6144,490,6048,490C5952,490,5856,490,5760,490C5664,490,5568,490,5472,490C5376,490,5280,490,5184,490C5088,490,4992,490,4896,490C4800,490,4704,490,4608,490C4512,490,4416,490,4320,490C4224,490,4128,490,4032,490C3936,490,3840,490,3744,490C3648,490,3552,490,3456,490C3360,490,3264,490,3168,490C3072,490,2976,490,2880,490C2784,490,2688,490,2592,490C2496,490,2400,490,2304,490C2208,490,2112,490,2016,490C1920,490,1824,490,1728,490C1632,490,1536,490,1440,490C1344,490,1248,490,1152,490C1056,490,960,490,864,490C768,490,672,490,576,490C480,490,384,490,288,490C192,490,96,490,48,490L0,490Z"/></svg>