<?xml version="1.0" standalone="no"?>
<svg xmlns:xlink="http://www.w3.org/1999/xlink" id="wave" style="transform:rotate(0deg); transition: 0.3s" viewBox="0 0 1440 490" version="1.1" xmlns="http://www.w3.org/2000/svg"><defs><linearGradient id="sw-gradient-0" x1="0" x2="0" y1="1" y2="0"><stop stop-color="rgba(243, 106, 62, 1)" offset="0%"/><stop stop-color="rgba(255, 179, 11, 1)" offset="100%"/></linearGradient></defs><path style="transform:translate(0, 0px); opacity:1" fill="url(#sw-gradient-0)" d="M0,98L60,98C120,98,240,98,360,130.7C480,163,600,229,720,245C840,261,960,229,1080,187.8C1200,147,1320,98,1440,114.3C1560,131,1680,212,1800,220.5C1920,229,2040,163,2160,171.5C2280,180,2400,261,2520,269.5C2640,278,2760,212,2880,155.2C3000,98,3120,49,3240,49C3360,49,3480,98,3600,138.8C3720,180,3840,212,3960,220.5C4080,229,4200,212,4320,228.7C4440,245,4560,294,4680,285.8C4800,278,4920,212,5040,212.3C5160,212,5280,278,5400,302.2C5520,327,5640,310,5760,253.2C5880,196,6000,98,6120,98C6240,98,6360,196,6480,228.7C6600,261,6720,229,6840,245C6960,261,7080,327,7200,318.5C7320,310,7440,229,7560,196C7680,163,7800,180,7920,179.7C8040,180,8160,163,8280,130.7C8400,98,8520,49,8580,24.5L8640,0L8640,490L8580,490C8520,490,8400,490,8280,490C8160,490,8040,490,7920,490C7800,490,7680,490,7560,490C7440,490,7320,490,7200,490C7080,490,6960,490,6840,490C6720,490,6600,490,6480,490C6360,490,6240,490,6120,490C6000,490,5880,490,5760,490C5640,490,5520,490,5400,490C5280,490,5160,490,5040,490C4920,490,4800,490,4680,490C4560,490,4440,490,4320,490C4200,490,4080,490,3960,490C3840,490,3720,490,3600,490C3480,490,3360,490,3240,490C3120,490,3000,490,2880,490C2760,490,2640,490,2520,490C2400,490,2280,490,2160,490C2040,490,1920,490,1800,490C1680,490,1560,490,1440,490C1320,490,1200,490,1080,490C960,490,840,490,720,490C600,490,480,490,360,490C240,490,120,490,60,490L0,490Z"/></svg>